<svg xmlns="http://www.w3.org/2000/svg" version="1.1" viewBox="0 0 48 48">
	<defs>
		<linearGradient id="bg" gradientUnits="userSpaceOnUse" x1="0" x2="0" y1="1" y2="47">
			<stop id="top" offset="0" stop-color="#b01a2f"/>
			<stop id="bot" offset="1" stop-color="#9e182b"/>
		</linearGradient>
	</defs>
	<path opacity=".02" d="m1 43v0.25c0 2.216 1.784 4 4 4h38c2.216 0 4-1.784 4-4v-0.25c0 2.216-1.784 4-4 4h-38c-2.216 0-4-1.784-4-4zm0 0.5v0.5c0 2.216 1.784 4 4 4h38c2.216 0 4-1.784 4-4v-0.5c0 2.216-1.784 4-4 4h-38c-2.216 0-4-1.784-4-4z"/>
	<path opacity=".05" d="m1 43.25v0.25c0 2.216 1.784 4 4 4h38c2.216 0 4-1.784 4-4v-0.25c0 2.216-1.784 4-4 4h-38c-2.216 0-4-1.784-4-4z"/>
	<path opacity=".1" d="m1 43v0.25c0 2.216 1.784 4 4 4h38c2.216 0 4-1.784 4-4v-0.25c0 2.216-1.784 4-4 4h-38c-2.216 0-4-1.784-4-4z"/>
	<rect fill="url(#bg)" rx="4" height="46" width="46" y="1" x="1"/>
	<path opacity=".1" d="m1 39v4c0 2.216 1.784 4 4 4h38c2.216 0 4-1.784 4-4v-4c0 2.216-1.784 4-4 4h-38c-2.216 0-4-1.784-4-4z"/>
	<path d="M 17,12 a 5,5,0,0,0,-5,5 a 1,1,0,0,0,2,0 a 3,3,0,0,1,3,-3
		H 19 V 30 a 4,4,0,0,1,-4,4 a 1,1,0,0,0,0,2 a 6,6,0,0,0,6,-6 V 14
		H 27 V 32 a 4,4,0,0,0,8,0 a 1,1,0,0,0,-2,0 a 2,2,0,0,1,-4,0 V 14
		H 35 a 1,1,0,0,0,0,-2 z" opacity=".1"/>
	<path d="M 17,12 a 5,5,0,0,0,-5,5 a 1,1,0,0,0,2,0 a 3,3,0,0,1,3,-3
		H 19 V 30 a 4,4,0,0,1,-4,4 a 1,1,0,0,0,0,2 a 6,6,0,0,0,6,-6 V 14
		H 27 V 32 a 4,4,0,0,0,8,0 a 1,1,0,0,0,-2,0 a 2,2,0,0,1,-4,0 V 14
		H 35 a 1,1,0,0,0,0,-2 z" fill="#ddd" transform="translate(0 -1)"/>
</svg>
