<svg version="1.1" viewBox="0 0 48 48" xmlns="http://www.w3.org/2000/svg">
	<defs>
		<linearGradient id="bg" x2="0" y1="1" y2="47" gradientUnits="userSpaceOnUse">
			BG
		</linearGradient>
	</defs>
	<path d="m36.31 5c5.859 4.062 9.688 10.831 9.688 18.5 0 12.426-10.07 22.5-22.5 22.5-7.669 0-14.438-3.828-18.5-9.688 1.037 1.822 2.306 3.499 3.781 4.969 4.085 3.712 9.514 5.969 15.469 5.969 12.703 0 23-10.298 23-23 0-5.954-2.256-11.384-5.969-15.469-1.469-1.475-3.147-2.744-4.969-3.781zm4.969 3.781c3.854 4.113 6.219 9.637 6.219 15.719 0 12.703-10.297 23-23 23-6.081 0-11.606-2.364-15.719-6.219 4.16 4.144 9.883 6.719 16.219 6.719 12.703 0 23-10.298 23-23 0-6.335-2.575-12.06-6.719-16.219z" style="opacity:.05"/>
	<path d="m41.28 8.781c3.712 4.085 5.969 9.514 5.969 15.469 0 12.703-10.297 23-23 23-5.954 0-11.384-2.256-15.469-5.969 4.113 3.854 9.637 6.219 15.719 6.219 12.703 0 23-10.298 23-23 0-6.081-2.364-11.606-6.219-15.719z" style="opacity:.1"/>
	<path d="m31.25 2.375c8.615 3.154 14.75 11.417 14.75 21.13 0 12.426-10.07 22.5-22.5 22.5-9.708 0-17.971-6.135-21.12-14.75a23 23 0 0 0 44.875-7 23 23 0 0 0-16-21.875z" style="opacity:.2"/>
	<circle cx="24" cy="24" r="23" style="fill:url(#bg)"/>
	<path d="m40.03 7.531c3.712 4.084 5.969 9.514 5.969 15.469 0 12.703-10.297 23-23 23-5.954 0-11.384-2.256-15.469-5.969 4.178 4.291 10.01 6.969 16.469 6.969 12.703 0 23-10.298 23-23 0-6.462-2.677-12.291-6.969-16.469z" style="opacity:.1"/>
	<g v="2-a" style="opacity:0">
		<path id="mouth" style="fill:#daa17c" d="m18 33v-8h12v8l-6 3z"/>
		<path id="beard" style="fill:#333" d="m24 38-6-5 5 2v-3h2v3l5-2z"/>
		<path id="lo-lips" style="fill:#c37641" d="m22 30.75 2-.3 2 .3-2 .25z"/>
		<path id="hi-lips" style="fill:#a76335" d="m20 31 4-1 4 1-4-.5z"/>
		<path id="cheeks" style="fill:#d5966c" d="m14 24 4 5 4-1h4l4 1 4-5-10-2z"/>
		<path id="eyelids" style="fill:#d18b5c" d="m14 24 1-4h18l1 4z"/>
		<path id="eyes" style="fill:#eeecee" d="m21 24c0-.5-2-1-3-1-.5 0-1 0-1 .5 0 1 1 1.5 2 1.5 1 0 2-.5 2-1zm6 0c0-.5 2-1 3-1 .5 0 1 0 1 .5 0 1-1 1.5-2 1.5-1 0-2-.5-2-1z"/>
		<path id="forehead" style="fill:#e3b89c" d="m14 20l9 3v4l-1 1 2 1 2-1-1-1v-4l9-3-2-5h-16z"/>
		<rect id="headband" style="fill:#9a5522" x="15" y="18" width="18" height="1"/>
		<circle id="medal" style="fill:#cfa81d" cx="24" cy="19" r="1"/>
		<path id="hair" style="fill:#333" d="m14 24l2-6c1-2 3-2 4-2 1 0 3 0 4 2c1-2 3-2 4-2 1 0 3 0 4 2l2 6v-5a10 10 0 0 0-20 0z"/>
	</g>
	<g v="2-b" style="opacity:0">
		<path id="mouth" style="fill:#daa17c" d="m18 33v-8h12v8l-6 3z"/>
		<path id="beard" style="fill:#333" d="m24 38-6-5 5 2v-3h2v3l5-2z"/>
		<path id="lo-lips" style="fill:#c37641" d="m22 30.75 2-.3 2 .3-2 .25z"/>
		<path id="hi-lips" style="fill:#a76335" d="m20 31 4-1 4 1-4-.5z"/>
		<path id="cheeks" style="fill:#d5966c" d="m15 24 3 5 4-1h4l4 1 3-5-9-1z"/>
		<path id="eyelids" style="fill:#d18b5c" d="m15 24 0-4h18l0 4z"/>
		<path id="eyes" style="fill:#eeecee" d="m21 24c0-.5-2-1-3-1-.5 0-1 0-1 .5 0 1 1 1.5 2 1.5 1 0 2-.5 2-1zm6 0c0-.5 2-1 3-1 .5 0 1 0 1 .5 0 1-1 1.5-2 1.5-1 0-2-.5-2-1z"/>
		<path id="forehead" style="fill:#e3b89c" d="m15 20l8 3v4l-1 1 2 1 2-1-1-1v-4l8-3-1-5h-16z"/>
		<rect id="headband" style="fill:#9a5522" x="15" y="18" width="18" height="1"/>
		<circle id="medal" style="fill:#cfa81d" cx="24" cy="19" r="1"/>
		<path id="hair" style="fill:#333" d="m15 24l1-6c1-2 3-2 4-2 1 0 3 0 4 2c1-2 3-2 4-2 1 0 3 0 4 2l1 6 1-5a10 10 0 0 0-20 0z"/>
	</g>
	<g v="2-c" style="opacity:1">
		<path id="mouth" style="fill:#daa17c" d="m18 33v-8h12v8l-6 3z"/>
		<path id="beard" style="fill:#333" d="m24 38-6-5 5 2v-3h2v3l5-2z"/>
		<path id="lo-lips" style="fill:#c37641" d="m22 30.75 2-.3 2 .3-2 .25z"/>
		<path id="hi-lips" style="fill:#a76335" d="m20 31 4-1 4 1-4-.5z"/>
		<path id="cheeks" style="fill:#d5966c" d="m15 24 3 5 4-1h4l4 1 3-5-9-1z"/>
		<path id="eyelids" style="fill:#d18b5c" d="m15 24 0-4h18l0 4z"/>
		<path id="eyes" style="fill:#eeecee" d="m21 24c0-.5-2-1-3-1-.5 0-1 0-1 .5 0 1 1 1.5 2 1.5 1 0 2-.5 2-1zm6 0c0-.5 2-1 3-1 .5 0 1 0 1 .5 0 1-1 1.5-2 1.5-1 0-2-.5-2-1z"/>
		<path id="forehead" style="fill:#e3b89c" d="m15 20l8 3v4l-1 1 2 1 2-1-1-1v-4l8-3-1-5h-16z"/>
		<rect id="headband" style="fill:#9a5522" x="15" y="18" width="18" height="1"/>
		<circle id="medal" style="fill:#cfa81d" cx="24" cy="19" r="1"/>
		<path id="hair" style="fill:#333" d="m15 24l1-6c1-2 3-2 4-2 1 0 3 0 4 2c1-2 3-2 4-2 1 0 3 0 4 2l1 6 1-5a10 9 0 0 0-20 0z"/>
	</g>
	<g style="fill:none;stroke:red;stroke-width:.0;opacity:.0">
		<circle cx="24" cy="24" r="15"/>
		<rect x="12" y="12" width="24" height="24"/>
		<circle cx="24" cy="19" r="10"/>
		<path d="m15 24c-.6-1-1-3-1-5"/>
		<path id="hair" style="fill:#333" d="m15 24l1-6 2-2 4 0 2 2 2-2 4 0 2 2 1 6 1 -5 -1 -6 -6 -2 -6 0 -6 2 -1 6z"/>
	</g>
</svg>
